<?xml version="1.0" encoding="utf-8"?>
<svg data-name="Layer 1" viewBox="0 0 100 100" x="0px" y="0px" xmlns="http://www.w3.org/2000/svg">
  <path d="M 13.954 95.807 L 78.084 95.807 C 83.455 95.788 87.801 91.433 87.807 86.062 L 87.807 42.545 C 87.807 40.781 85.898 39.68 84.371 40.561 C 83.663 40.97 83.226 41.726 83.226 42.545 L 83.226 86.062 C 83.221 88.903 80.926 91.208 78.084 91.227 L 13.954 91.227 C 11.102 91.227 8.789 88.914 8.789 86.062 L 8.789 21.932 C 8.808 19.09 11.113 16.795 13.954 16.79 L 57.471 16.79 C 59.235 16.79 60.336 14.881 59.455 13.354 C 59.046 12.645 58.29 12.209 57.471 12.209 L 13.954 12.209 C 8.588 12.215 4.234 16.554 4.209 21.92 L 4.209 86.05 C 4.209 91.435 8.57 95.8 13.954 95.807 Z" style=""/>
  <path d="M 84.2 4.193 C 81.113 4.194 78.157 5.432 75.989 7.628 L 31.693 51.901 C 30.731 52.858 30.019 54.039 29.62 55.337 L 24.433 72.732 C 23.995 74.201 25.098 75.677 26.631 75.675 C 26.852 75.673 27.071 75.642 27.284 75.583 L 44.645 70.407 C 45.943 70.009 47.123 69.296 48.081 68.334 L 92.388 24.027 C 98.709 17.694 95.803 6.893 87.158 4.586 C 86.192 4.328 85.198 4.196 84.2 4.193 Z M 44.874 65.093 C 44.442 65.523 43.911 65.838 43.328 66.01 L 30.033 69.983 L 33.983 56.688 C 34.155 56.105 34.47 55.574 34.9 55.142 L 72.359 17.706 L 82.31 27.657 L 44.874 65.093 Z M 89.181 20.786 L 85.517 24.428 L 75.588 14.499 L 79.23 10.869 C 83.06 7.038 89.6 8.792 91.002 14.024 C 91.654 16.452 90.959 19.043 89.181 20.821 L 89.181 20.786 Z" style=""/>
</svg>