<?xml version="1.0" encoding="utf-8"?>
<svg version="1.1" x="0px" y="0px" viewBox="0 0 30 30" style="enable-background:new 0 0 32 32;" xmlns="http://www.w3.org/2000/svg">
  <g transform="matrix(0.366015, 0, 0, 0.366015, -3.300754, -3.300294)" style="">
    <path d="M77.34,38.68V27.15c0-2.45-1.99-4.44-4.44-4.44h-4.5c-2.45,0-4.44,1.99-4.44,4.44v0.01l-8.29-7.13   c-3.29-2.83-8.06-2.83-11.34,0L13.4,46.65c-0.84,0.72-0.93,1.98-0.21,2.82c0.72,0.84,1.98,0.93,2.82,0.21l30.93-26.63   c1.77-1.53,4.35-1.53,6.12,0l30.93,26.63c0.38,0.33,0.84,0.48,1.3,0.48c0.56,0,1.12-0.24,1.52-0.7c0.72-0.84,0.63-2.1-0.21-2.82   L77.34,38.68z M67.96,29.72v-2.57c0-0.24,0.2-0.44,0.44-0.44h4.5c0.24,0,0.44,0.2,0.44,0.44v8.09l-5.53-4.76   C67.9,30.24,67.96,29.99,67.96,29.72z"/>
    <path d="M22.87,48.05c-1.1,0-2,0.9-2,2v25.43c0,3.64,2.96,6.61,6.61,6.61h8.53c3.64,0,6.61-2.96,6.61-6.61V63   c0-1.38,1.12-2.51,2.51-2.51h9.76c1.38,0,2.51,1.12,2.51,2.51v12.47c0,3.64,2.96,6.61,6.61,6.61h8.53c3.64,0,6.61-2.96,6.61-6.61   V50.05c0-1.1-0.9-2-2-2s-2,0.9-2,2v25.43c0,1.44-1.17,2.61-2.61,2.61h-8.53c-1.44,0-2.61-1.17-2.61-2.61V63   c0-3.59-2.92-6.51-6.51-6.51h-9.76c-3.59,0-6.51,2.92-6.51,6.51v12.47c0,1.44-1.17,2.61-2.61,2.61h-8.53   c-1.44,0-2.61-1.17-2.61-2.61V50.05C24.87,48.94,23.97,48.05,22.87,48.05z"/>
  </g>
</svg>