<?xml version="1.0" encoding="utf-8"?>
<svg viewBox="0 0 500 500" xmlns="http://www.w3.org/2000/svg">
  <path class="cls-1" d="M 95.426 389.509 C 90.644 389.509 86.764 393.379 86.764 398.168 L 86.764 441.38 C 86.764 469.549 109.688 492.472 137.859 492.472 L 362.145 492.472 C 390.324 492.472 413.237 469.549 413.237 441.38 L 413.237 267.492 C 413.237 239.314 390.324 216.401 362.145 216.401 L 356.958 216.401 L 356.958 114.475 C 356.958 55.504 308.975 7.527 250.001 7.527 C 191.03 7.527 143.053 55.504 143.053 114.475 L 143.053 216.401 L 137.859 216.401 C 109.688 216.401 86.764 239.314 86.764 267.492 L 86.764 346.21 C 86.764 350.989 90.644 354.869 95.426 354.869 C 100.206 354.869 104.085 350.989 104.085 346.21 L 104.085 267.492 C 104.085 248.866 119.238 233.722 137.859 233.722 L 362.145 233.722 C 380.771 233.722 395.919 248.866 395.919 267.492 L 395.919 441.38 C 395.919 459.998 380.771 475.154 362.145 475.154 L 137.859 475.154 C 119.238 475.154 104.085 459.998 104.085 441.38 L 104.085 398.168 C 104.085 393.379 100.206 389.509 95.426 389.509 Z M 160.374 114.475 C 160.374 65.054 200.58 24.849 250.001 24.849 C 299.431 24.849 339.637 65.054 339.637 114.475 L 339.637 216.357 L 160.374 216.357 L 160.374 114.475 Z" style="stroke-width: 0px;"/>
  <path class="cls-1" d="M 250.001 404.257 C 254.79 404.257 258.66 400.384 258.66 395.598 L 258.66 379.74 C 275.513 375.799 288.13 360.732 288.13 342.695 C 288.13 321.676 271.027 304.573 250.001 304.573 C 228.985 304.573 211.874 321.676 211.874 342.695 C 211.874 360.732 224.499 375.799 241.342 379.74 L 241.342 395.598 C 241.342 400.384 245.221 404.257 250.001 404.257 Z M 229.192 342.695 C 229.192 331.23 238.535 321.894 250.001 321.894 C 261.477 321.894 270.811 331.23 270.811 342.695 C 270.811 354.168 261.477 363.504 250.001 363.504 C 238.535 363.504 229.192 354.168 229.192 342.695 Z" style="stroke-width: 0px;"/>
</svg>