<?xml version="1.0" encoding="utf-8"?>
<svg viewBox="0 0 500 500" xmlns="http://www.w3.org/2000/svg">
  <circle cx="204.905" cy="481.11" r="11.274" style=""/>
  <path d="M 370.628 489.001 C 372.885 486.747 374.011 484.493 374.011 481.11 L 374.011 458.562 C 374.011 446.162 363.865 436.016 351.463 436.016 L 328.917 436.016 C 328.917 411.213 308.623 390.919 283.82 390.919 L 283.82 330.044 C 328.917 317.641 363.865 279.31 371.756 233.089 C 403.321 229.706 431.506 210.541 445.035 181.229 C 447.289 175.592 445.035 168.829 439.398 166.573 C 433.76 164.318 426.997 166.573 424.741 172.21 C 415.723 192.503 396.558 207.16 374.011 210.541 L 374.011 63.983 L 430.378 63.983 L 430.378 86.53 C 430.378 92.167 436.015 97.804 441.652 97.804 C 447.289 97.804 452.926 92.167 452.926 86.53 L 452.926 52.709 C 452.926 49.326 451.8 47.072 449.543 44.818 C 447.289 42.563 445.035 41.435 441.652 41.435 L 374.011 41.435 L 374.011 18.889 C 374.011 12.124 369.502 7.615 362.737 7.615 L 137.263 7.615 C 130.497 7.615 125.989 12.124 125.989 18.889 L 125.989 41.435 L 58.347 41.435 C 51.582 41.435 47.073 45.946 47.073 52.709 L 47.073 142.898 C 47.073 189.121 83.149 227.452 128.243 233.089 C 136.134 279.31 171.083 317.641 216.179 330.044 L 216.179 390.919 C 191.376 390.919 171.083 411.213 171.083 436.016 L 148.537 436.016 C 136.134 436.016 125.989 446.162 125.989 458.562 L 125.989 481.11 C 125.989 484.493 127.117 486.747 129.371 489.001 C 131.626 491.256 133.88 492.384 137.263 492.384 L 159.811 492.384 C 165.448 492.384 171.083 486.747 171.083 481.11 C 171.083 475.473 165.448 469.836 159.811 469.836 L 148.537 469.836 L 148.537 458.562 L 182.357 458.562 L 198.142 458.562 L 288.331 458.562 L 317.642 458.562 L 351.463 458.562 L 351.463 469.836 L 250 469.836 C 244.363 469.836 238.726 475.473 238.726 481.11 C 238.726 486.747 244.363 492.384 250 492.384 L 362.737 492.384 C 366.119 492.384 368.374 491.256 370.628 489.001 Z M 69.621 142.898 L 69.621 63.983 L 125.989 63.983 L 125.989 209.415 C 94.423 203.778 69.621 176.721 69.621 142.898 Z M 148.537 210.541 L 148.537 30.161 L 351.463 30.161 L 351.463 210.541 C 351.463 266.91 306.368 312.004 250 312.004 C 193.631 312.004 148.537 266.91 148.537 210.541 Z M 238.726 333.424 C 242.107 333.424 246.618 334.552 250 334.552 C 253.381 334.552 257.892 334.552 261.272 333.424 L 261.272 390.919 L 238.726 390.919 L 238.726 333.424 Z M 288.331 436.016 L 198.142 436.016 L 193.631 436.016 C 193.631 423.613 203.777 413.468 216.179 413.468 L 283.82 413.468 C 296.223 413.468 306.368 423.613 306.368 436.016 L 288.331 436.016 Z" style=""/>
  <circle cx="441.652" cy="131.624" r="11.274" style=""/>
</svg>