<?xml version="1.0" encoding="utf-8"?>
<svg data-name="Layer 1" viewBox="0 0 100 100" x="0px" y="0px" xmlns="http://www.w3.org/2000/svg">
  <path d="M 50.138 93.713 C 74.558 93.681 94.342 73.889 94.365 49.469 C 94.367 47.4 94.22 45.332 93.927 43.284 C 93.67 41.525 91.607 40.701 90.209 41.802 C 89.56 42.312 89.234 43.131 89.353 43.948 C 89.615 45.777 89.745 47.622 89.743 49.469 C 89.737 79.964 56.723 99.016 30.316 83.764 C 3.91 68.51 3.918 30.393 30.331 15.151 C 36.353 11.675 43.185 9.845 50.138 9.847 C 58.818 9.816 67.26 12.678 74.132 17.981 C 75.547 19.062 77.599 18.208 77.829 16.443 C 77.936 15.629 77.6 14.818 76.95 14.316 C 69.271 8.391 59.836 5.193 50.138 5.226 C 16.079 5.226 -5.208 42.095 11.822 71.59 C 19.725 85.279 34.332 93.713 50.138 93.713 Z" style=""/>
  <path d="M 40.94 46.775 C 39.68 45.521 37.534 46.099 37.077 47.819 C 36.865 48.613 37.092 49.46 37.672 50.042 L 50.549 62.918 C 51.452 63.821 52.913 63.821 53.816 62.918 L 94.567 22.166 C 95.825 20.909 95.249 18.762 93.532 18.302 C 92.734 18.087 91.884 18.315 91.3 18.899 L 52.181 58.017 L 40.94 46.775 Z" style=""/>
</svg>