<?xml version="1.0" encoding="utf-8"?>
<svg viewBox="0 0 500 500" xmlns="http://www.w3.org/2000/svg">
  <path class="cls-1" d="M 478.788 202.418 L 410.051 183.845 C 410.019 183.761 409.985 183.68 409.953 183.606 L 445.426 121.858 C 447.275 118.631 446.738 114.545 444.105 111.914 L 388.077 55.902 C 385.436 53.253 381.352 52.716 378.133 54.573 L 316.393 90.046 C 316.311 90.014 316.23 89.98 316.154 89.948 L 297.579 21.211 C 296.605 17.604 293.338 15.113 289.608 15.113 L 210.392 15.113 C 206.662 15.113 203.402 17.604 202.421 21.211 L 183.846 89.948 C 183.772 89.98 183.688 90.014 183.606 90.046 L 121.867 54.573 C 118.639 52.716 114.548 53.253 111.923 55.902 L 55.902 111.914 C 53.261 114.545 52.725 118.631 54.574 121.858 L 90.048 183.606 C 90.015 183.68 89.983 183.761 89.957 183.845 L 21.211 202.418 C 17.613 203.394 15.113 206.661 15.113 210.391 L 15.113 289.607 C 15.113 293.337 17.613 296.605 21.211 297.578 L 89.957 316.153 C 89.983 316.235 90.015 316.319 90.048 316.393 L 54.574 378.132 C 52.725 381.368 53.261 385.443 55.902 388.076 L 111.923 444.097 C 114.548 446.738 118.639 447.274 121.867 445.425 L 183.598 409.951 C 183.688 409.984 183.772 410.016 183.846 410.05 L 202.421 478.788 C 203.402 482.394 206.662 484.886 210.392 484.886 L 289.608 484.886 C 293.338 484.886 296.605 482.394 297.579 478.788 L 316.154 410.05 C 316.23 410.016 316.311 409.984 316.393 409.951 L 378.133 445.425 C 381.352 447.274 385.436 446.738 388.077 444.097 L 444.105 388.076 C 446.738 385.443 447.275 381.368 445.426 378.132 L 409.953 316.393 C 409.985 316.319 410.019 316.235 410.051 316.153 L 478.788 297.578 C 482.387 296.605 484.886 293.337 484.886 289.607 L 484.886 210.391 C 484.886 206.661 482.387 203.394 478.788 202.418 Z M 468.383 283.296 L 401.733 301.308 C 399.191 301.993 397.129 303.842 396.187 306.301 C 395.24 308.761 394.274 311.202 393.217 313.604 C 392.154 316.014 392.286 318.786 393.598 321.062 L 427.966 380.881 L 380.874 427.965 L 321.065 393.596 C 318.787 392.285 316.006 392.151 313.596 393.217 C 311.203 394.282 308.761 395.239 306.302 396.179 C 303.842 397.128 301.995 399.191 301.301 401.732 L 283.288 468.383 L 216.713 468.383 L 198.699 401.732 C 198.006 399.183 196.149 397.12 193.69 396.179 C 191.23 395.239 188.789 394.282 186.403 393.217 C 184.003 392.161 181.213 392.293 178.937 393.596 L 119.128 427.965 L 72.034 380.881 L 106.403 321.062 C 107.714 318.786 107.856 316.014 106.79 313.604 C 105.725 311.202 104.77 308.761 103.812 306.301 C 102.871 303.842 100.808 301.993 98.267 301.308 L 31.616 283.296 L 31.616 216.703 L 98.267 198.69 C 100.808 198.004 102.871 196.157 103.812 193.697 C 104.77 191.238 105.725 188.788 106.79 186.387 C 107.856 183.985 107.714 181.212 106.403 178.934 L 72.034 119.117 L 119.128 72.033 L 178.937 106.401 C 181.205 107.713 183.993 107.855 186.403 106.782 C 188.797 105.717 191.238 104.759 193.698 103.82 C 196.157 102.87 198.006 100.808 198.699 98.266 L 216.713 31.616 L 283.288 31.616 L 301.301 98.266 C 301.995 100.808 303.842 102.87 306.302 103.82 C 308.761 104.759 311.203 105.717 313.596 106.782 C 316.006 107.855 318.787 107.713 321.065 106.401 L 380.874 72.033 L 427.966 119.117 L 393.598 178.934 C 392.286 181.212 392.154 183.985 393.217 186.387 C 394.274 188.788 395.24 191.238 396.187 193.697 C 397.129 196.157 399.191 198.004 401.733 198.69 L 468.383 216.703 L 468.383 283.296 Z" style="stroke-width: 0px;"/>
  <path class="cls-1" d="M 250 142.478 C 190.72 142.478 142.479 190.709 142.479 249.999 C 142.479 254.553 146.169 258.252 150.731 258.252 C 155.295 258.252 158.983 254.553 158.983 249.999 C 158.983 199.811 199.812 158.983 250 158.983 C 300.188 158.983 341.016 199.811 341.016 249.999 C 341.016 300.185 300.188 341.016 250 341.016 C 216.316 341.016 185.561 322.525 169.735 292.751 C 167.598 288.715 162.582 287.181 158.57 289.336 C 154.553 291.472 153.017 296.473 155.163 300.492 C 173.86 335.668 210.202 357.52 250 357.52 C 309.29 357.52 357.521 309.287 357.521 249.999 C 357.521 190.709 309.29 142.478 250 142.478 Z" style="stroke-width: 0px;"/>
</svg>