<svg version="1.1" x="0px" y="0px" viewBox="0 0 30 30" style="enable-background:new 0 0 32 32;"
  xmlns="http://www.w3.org/2000/svg">
  <path
    d="M 15 1.467 C 7.541 1.467 1.467 7.541 1.467 15 C 1.467 19.948 4.141 24.268 8.114 26.628 C 8.179 26.693 8.255 26.737 8.342 26.769 C 10.312 27.884 12.575 28.534 15 28.534 C 17.426 28.534 19.688 27.884 21.659 26.769 C 21.745 26.737 21.832 26.693 21.886 26.628 C 25.86 24.268 28.534 19.948 28.534 15 C 28.534 7.541 22.46 1.467 15 1.467 Z M 20.955 25.936 C 19.19 26.899 17.155 27.451 15 27.451 C 12.846 27.451 10.81 26.899 9.045 25.936 L 9.045 23.662 C 9.045 20.381 11.72 17.707 15 17.707 C 18.281 17.707 20.955 20.381 20.955 23.662 L 20.955 25.936 Z M 11.211 12.835 C 11.211 10.745 12.911 9.045 15 9.045 C 17.09 9.045 18.79 10.745 18.79 12.835 C 18.79 14.925 17.09 16.624 15 16.624 C 12.911 16.624 11.211 14.925 11.211 12.835 Z M 22.038 25.264 L 22.038 23.662 C 22.038 20.619 20.1 18.032 17.393 17.057 C 18.866 16.213 19.872 14.654 19.872 12.835 C 19.872 10.15 17.685 7.963 15 7.963 C 12.315 7.963 10.128 10.15 10.128 12.835 C 10.128 14.643 11.135 16.213 12.608 17.057 C 9.901 18.043 7.963 20.63 7.963 23.662 L 7.963 25.264 C 4.693 23.012 2.549 19.255 2.549 15 C 2.549 8.136 8.136 2.549 15 2.549 C 21.865 2.549 27.451 8.136 27.451 15 C 27.451 19.255 25.308 23.012 22.038 25.264 Z"
    style="" />
</svg>