<?xml version="1.0" encoding="utf-8"?>
<svg viewBox="1.474 21.119 440.665 458.631" xmlns="http://www.w3.org/2000/svg">
  <g transform="matrix(4.817317, 0, 0, 4.817317, -19.180044, 9.134201)" style="">
    <g>
      <path d="M37.97,30.95c-7.74,0-14.04-6.3-14.04-14.04c0-7.74,6.3-14.04,14.04-14.04S52,9.17,52,16.91c0,1.1-0.9,2-2,2s-2-0.9-2-2    c0-5.53-4.5-10.04-10.04-10.04s-10.04,4.5-10.04,10.04c0,5.53,4.5,10.04,10.04,10.04c1.1,0,2,0.9,2,2S39.07,30.95,37.97,30.95z"/>
    </g>
    <g>
      <path d="M38.21,97.13c-1.12,0-2.26-0.14-3.38-0.42c-3.59-0.89-6.61-3.13-8.52-6.3c-3.14-5.22-2.46-12,1.66-16.48l6.73-7.33    c0.75-0.81,2.01-0.87,2.83-0.12c0.81,0.75,0.87,2.01,0.12,2.83l-6.73,7.32c-2.92,3.19-3.41,8.01-1.18,11.72    c1.35,2.25,3.5,3.85,6.06,4.48c2.55,0.63,5.2,0.24,7.45-1.11c2.9-1.74,4.69-4.8,4.77-8.19c0.03-1.1,0.96-1.98,2.05-1.95    c1.1,0.03,1.98,0.95,1.95,2.05c-0.12,4.76-2.63,9.07-6.71,11.52C43.13,96.46,40.69,97.13,38.21,97.13z"/>
    </g>
    <g>
      <path d="M61.75,97.13c-2.48,0-4.92-0.67-7.1-1.98c-4.01-2.41-6.48-6.71-6.6-11.52l0-66.72c0-7.74,6.26-14.04,13.95-14.04    c3.15,0,6.64,1.32,9.12,3.43c0.1,0.09,0.2,0.19,0.28,0.3c0.1,0.13,2.56,3.33,3.37,6.94c0.24,1.08-0.44,2.15-1.51,2.39    c-1.08,0.24-2.15-0.44-2.39-1.51c-0.52-2.34-2.07-4.6-2.51-5.21c-1.75-1.42-4.22-2.33-6.36-2.33c-5.48,0-9.95,4.5-9.95,10.04    v66.67c0.09,3.38,1.83,6.44,4.66,8.14c2.25,1.35,4.9,1.75,7.45,1.11c2.55-0.64,4.7-2.23,6.05-4.48c2.23-3.71,1.75-8.53-1.17-11.72    l-0.92-0.99c-0.75-0.81-0.7-2.08,0.11-2.83c0.81-0.75,2.08-0.7,2.83,0.11l0.92,1c4.12,4.49,4.8,11.27,1.66,16.49    c-1.9,3.17-4.93,5.41-8.52,6.3C64.01,96.99,62.88,97.13,61.75,97.13z"/>
    </g>
    <g>
      <path d="M25.97,85.38c-0.04,0-0.09,0-0.13,0c-5.11-0.33-9.01-2.25-11.59-5.69C9.99,74,10.76,65.88,11.23,62.94    c-4.39-4.58-6.54-9.59-6.39-14.92c0.23-8,5.63-14.22,7.82-16.41c-1.94-9.18,1.68-13.36,5.19-15.25c0.7-0.45,4.26-2.53,8.59-1.39    c1.07,0.28,1.71,1.38,1.43,2.44c-0.28,1.07-1.38,1.71-2.44,1.42c-2.93-0.77-5.39,0.86-5.41,0.88c-0.07,0.05-0.13,0.09-0.21,0.13    c-3.51,1.86-4.52,5.88-3,11.94c0.18,0.73-0.06,1.5-0.63,1.99c-0.07,0.06-7.12,6.33-7.34,14.38c-0.12,4.45,1.88,8.71,5.94,12.68    c0.5,0.48,0.71,1.19,0.55,1.87c-0.02,0.09-1.95,9.17,2.13,14.59c1.85,2.46,4.76,3.83,8.64,4.09c1.1,0.07,1.94,1.02,1.87,2.13    C27.9,84.57,27.02,85.38,25.97,85.38z"/>
    </g>
    <g>
      <g>
        <path d="M43.17,21.33c-1.58,0-3.17-0.51-4.5-1.56c-0.43-0.34-0.51-0.97-0.17-1.4c0.34-0.43,0.97-0.51,1.4-0.17     c2.3,1.81,5.63,1.41,7.44-0.89c0.87-1.11,1.26-2.49,1.09-3.9s-0.87-2.67-1.98-3.54c-0.43-0.34-0.51-0.97-0.17-1.4     c0.34-0.43,0.97-0.51,1.4-0.17c1.53,1.2,2.5,2.93,2.73,4.87c0.23,1.94-0.3,3.85-1.5,5.38C47.48,20.37,45.34,21.32,43.17,21.33z"/>
      </g>
      <g>
        <path d="M30.17,41.26c-0.08,0-0.16-0.01-0.24-0.03c-3.91-0.96-6.31-4.92-5.35-8.83c0.96-3.91,4.92-6.3,8.83-5.34     c0.54,0.13,0.86,0.67,0.73,1.21c-0.13,0.54-0.67,0.87-1.21,0.73c-2.84-0.69-5.71,1.04-6.41,3.88c-0.7,2.84,1.05,5.71,3.88,6.41     c0.54,0.13,0.86,0.67,0.73,1.21C31.03,40.95,30.62,41.26,30.17,41.26z"/>
      </g>
      <g>
        <path d="M23.58,60.56c-0.55,0-1-0.45-1-1s0.45-1,1-1c5.42,0,13.37-10.7,15.98-14.82c0.03-0.04,0.06-0.09,0.1-0.13     c1.29-1.46,3.18-2.36,5.17-2.47c2.03-0.1,3.96,0.59,5.46,1.96c0.41,0.37,0.44,1.01,0.06,1.41c-0.37,0.41-1.01,0.44-1.41,0.06     c-1.1-1-2.51-1.52-4-1.43c-1.43,0.08-2.78,0.71-3.72,1.74C40.38,46.18,31.02,60.56,23.58,60.56z"/>
      </g>
      <g>
        <path d="M50.03,82.35c-0.01,0-0.03,0-0.04,0c-0.55-0.02-0.98-0.49-0.96-1.04c0.06-1.36-0.67-2.65-1.86-3.29     c-0.83-0.45-1.79-0.55-2.7-0.27c-0.91,0.27-1.66,0.88-2.11,1.72c-0.26,0.49-0.87,0.67-1.35,0.4c-0.49-0.26-0.67-0.87-0.41-1.35     c0.7-1.3,1.87-2.25,3.3-2.68c1.42-0.43,2.92-0.27,4.23,0.43c1.85,1,3,3.01,2.91,5.13C51.01,81.93,50.57,82.35,50.03,82.35z"/>
      </g>
      <g>
        <path d="M31.69,73.59c-0.11,0-0.22-0.02-0.33-0.06l-6.68-2.35c-0.52-0.18-0.79-0.75-0.61-1.28c0.18-0.52,0.75-0.79,1.28-0.61     l6.68,2.35c0.52,0.18,0.79,0.75,0.61,1.28C32.49,73.33,32.1,73.59,31.69,73.59z"/>
      </g>
      <g>
        <path d="M31.48,55.87c-0.27,0-0.54-0.11-0.73-0.32c-4.26-4.62-10.37-7.52-10.43-7.55c-0.5-0.24-0.71-0.83-0.48-1.33     c0.24-0.5,0.83-0.71,1.33-0.48c0.26,0.12,6.52,3.1,11.05,8c0.38,0.41,0.35,1.04-0.06,1.41C31.97,55.78,31.73,55.87,31.48,55.87z"/>
      </g>
    </g>
    <g>
      <path d="M71.53,31.44c-0.39,0-0.76-0.23-0.92-0.61c-1.84-4.31-6.5-6.64-11.06-5.53c-0.54,0.13-1.08-0.2-1.21-0.74    c-0.13-0.54,0.2-1.08,0.74-1.21c5.52-1.34,11.15,1.47,13.38,6.69c0.22,0.51-0.02,1.1-0.53,1.31    C71.79,31.41,71.66,31.44,71.53,31.44z"/>
    </g>
    <g>
      <path d="M60.95,77.34c-0.27,0-0.53-0.01-0.8-0.03c-0.55-0.04-0.96-0.52-0.92-1.07s0.52-0.96,1.07-0.93    c2.32,0.17,4.72-0.57,6.73-2.08c2.71-2.04,4.25-5.17,4.03-8.19c-0.04-0.55,0.37-1.03,0.92-1.07c0.58-0.03,1.03,0.37,1.07,0.92    c0.27,3.69-1.58,7.5-4.82,9.94C66.06,76.46,63.5,77.34,60.95,77.34z"/>
    </g>
    <g>
      <path d="M50.04,69.02c-0.53,0-0.98-0.42-1-0.96c-0.09-2.24,1.63-4.19,3.37-5.13c2.59-1.4,7.36-0.56,8.88,2.25    c0.26,0.49,0.08,1.09-0.4,1.35c-0.49,0.26-1.09,0.08-1.36-0.4c-0.88-1.62-4.34-2.43-6.17-1.44c-1.39,0.75-2.37,2.13-2.32,3.29    c0.02,0.55-0.41,1.02-0.96,1.04C50.07,69.02,50.05,69.02,50.04,69.02z"/>
    </g>
    <g>
      <path d="M74.03,85.38c-1.04,0-1.92-0.81-1.99-1.87c-0.07-1.1,0.76-2.05,1.87-2.13c3.88-0.25,6.79-1.63,8.64-4.09    c4.08-5.42,2.15-14.51,2.13-14.6c-0.15-0.67,0.06-1.38,0.56-1.86c4.07-3.97,6.07-8.25,5.94-12.7c-0.23-8.09-7.27-14.29-7.34-14.36    c-0.83-0.73-0.92-1.99-0.2-2.82c0.72-0.83,1.99-0.92,2.82-0.2c0.34,0.3,8.43,7.44,8.71,17.26c0.15,5.32-1.99,10.33-6.39,14.92    c0.46,2.94,1.24,11.06-3.03,16.75c-2.58,3.44-6.48,5.35-11.59,5.69C74.11,85.38,74.07,85.38,74.03,85.38z"/>
    </g>
    <g>
      <path d="M55.34,54.72c-2.86,0-4.98-0.55-5.03-0.56c-0.53-0.14-0.85-0.69-0.71-1.22c0.14-0.53,0.7-0.85,1.22-0.71    c0.46,0.12,11.35,2.92,15.98-5.47c0.27-0.48,0.87-0.66,1.36-0.39c0.48,0.27,0.66,0.88,0.39,1.36    C65.35,53.54,59.55,54.72,55.34,54.72z"/>
    </g>
    <g>
      <path d="M72.27,54.94c-4.42,0-8.02-2.84-8.08-2.88c-0.43-0.35-0.5-0.97-0.15-1.4c0.35-0.43,0.98-0.5,1.41-0.15    c0.3,0.24,7.33,5.75,13.08-0.56c0.37-0.41,1.01-0.44,1.41-0.06c0.41,0.37,0.44,1,0.07,1.41C77.48,54.05,74.74,54.94,72.27,54.94z"/>
    </g>
    <g>
      <path d="M84.85,33.95c-0.37,0-0.75-0.1-1.08-0.32c-0.93-0.6-1.2-1.83-0.6-2.76c1-1.55,1.53-3.36,1.53-5.22    c0-5.33-4.34-9.67-9.67-9.67c-4.26,0-8.07,2.85-9.27,6.93c-0.31,1.06-1.42,1.67-2.48,1.35c-1.06-0.31-1.67-1.42-1.35-2.48    c1.7-5.77,7.09-9.81,13.11-9.81c7.54,0,13.67,6.13,13.67,13.67c0,2.63-0.75,5.18-2.16,7.38C86.15,33.62,85.51,33.95,84.85,33.95z"/>
    </g>
    <g>
      <path d="M60.99,38.83c-4.51,0-11.11-5.52-11.39-5.75c-0.42-0.36-0.48-0.99-0.12-1.41c0.35-0.42,0.99-0.48,1.41-0.12    c1.75,1.47,6.96,5.28,10.1,5.28c0.55,0,1,0.45,1,1S61.55,38.83,60.99,38.83z"/>
    </g>
    <g>
      <path d="M85.14,34.28c-0.45,0-0.9-0.15-1.27-0.46c-0.96-0.79-2.75-2.2-3.5-2.6c-0.97-0.52-1.33-1.74-0.81-2.71    c0.52-0.97,1.74-1.34,2.71-0.81c1.34,0.72,3.87,2.81,4.15,3.04c0.85,0.7,0.97,1.96,0.26,2.82C86.28,34.03,85.71,34.28,85.14,34.28    z"/>
    </g>
  </g>
</svg>